<svg width="24" height="23" viewBox="0 0 24 23" fill="none" xmlns="http://www.w3.org/2000/svg">
<path d="M21.1482 0.650024H2.7778C2.16879 0.650024 1.58472 0.892346 1.15408 1.32368C0.723437 1.75501 0.481506 2.34003 0.481506 2.95002V14.45C0.481506 15.715 1.51484 16.75 2.7778 16.75H11.676V20.775H5.93521C5.70683 20.775 5.4878 20.8659 5.32631 21.0276C5.16482 21.1894 5.0741 21.4088 5.0741 21.6375C5.0741 21.8663 5.16482 22.0857 5.32631 22.2474C5.4878 22.4092 5.70683 22.5 5.93521 22.5H19.1389C19.3673 22.5 19.5863 22.4092 19.7478 22.2474C19.9093 22.0857 20 21.8663 20 21.6375C20 21.4088 19.9093 21.1894 19.7478 21.0276C19.5863 20.8659 19.3673 20.775 19.1389 20.775H13.3982V16.75H21.1482C21.7572 16.75 22.3413 16.5077 22.7719 16.0764C23.2025 15.645 23.4445 15.06 23.4445 14.45V2.95002C23.4445 2.34003 23.2025 1.75501 22.7719 1.32368C22.3413 0.892346 21.7572 0.650024 21.1482 0.650024Z" fill="#428D26"/>
</svg>
